<svg width="19" height="197" viewBox="0 0 19 197" fill="none" xmlns="http://www.w3.org/2000/svg">
<path d="M2.4 191.052C2.4 189.936 2.586 188.97 2.958 188.154C3.33 187.326 3.858 186.69 4.542 186.246C5.226 185.802 6.036 185.58 6.972 185.58C7.896 185.58 8.706 185.802 9.402 186.246C10.086 186.69 10.614 187.326 10.986 188.154C11.346 188.97 11.526 189.936 11.526 191.052L11.526 193.59L15 193.59L15 196.506L2.4 196.506L2.4 191.052ZM9.15 191.214C9.15 190.338 8.964 189.672 8.592 189.216C8.208 188.76 7.668 188.532 6.972 188.532C6.264 188.532 5.724 188.76 5.352 189.216C4.968 189.672 4.776 190.338 4.776 191.214L4.776 193.59L9.15 193.59L9.15 191.214ZM10.194 173.508C10.23 173.508 10.482 173.526 10.95 173.562L10.95 180.888C11.55 180.756 12.024 180.444 12.372 179.952C12.72 179.46 12.894 178.848 12.894 178.116C12.894 177.612 12.822 177.168 12.678 176.784C12.522 176.388 12.282 176.022 11.958 175.686L13.578 174.192C14.622 175.104 15.144 176.436 15.144 178.188C15.144 179.28 14.934 180.246 14.514 181.086C14.082 181.926 13.488 182.574 12.732 183.03C11.976 183.486 11.118 183.714 10.158 183.714C9.21 183.714 8.358 183.492 7.602 183.048C6.834 182.592 6.24 181.974 5.82 181.194C5.388 180.402 5.172 179.52 5.172 178.548C5.172 177.6 5.376 176.742 5.784 175.974C6.192 175.206 6.78 174.606 7.548 174.174C8.304 173.73 9.186 173.508 10.194 173.508ZM7.296 178.53C7.296 179.166 7.476 179.7 7.836 180.132C8.196 180.564 8.688 180.828 9.312 180.924L9.312 176.154C8.7 176.25 8.214 176.514 7.854 176.946C7.482 177.378 7.296 177.906 7.296 178.53ZM6.594 168.236C6.126 167.9 5.772 167.45 5.532 166.886C5.292 166.31 5.172 165.65 5.172 164.906L7.764 164.906C7.74 165.218 7.728 165.428 7.728 165.536C7.728 166.34 7.956 166.97 8.412 167.426C8.856 167.882 9.528 168.11 10.428 168.11L15 168.11L15 170.918L5.316 170.918L5.316 168.236L6.594 168.236ZM5.532 159.368L5.532 156.884L7.692 156.884L7.692 159.296L15 159.296L15 162.104L7.692 162.104L7.692 163.598L5.532 163.598L5.532 162.104L5.1 162.104C3.996 162.104 3.12 161.78 2.472 161.132C1.824 160.472 1.5 159.548 1.5 158.36C1.5 157.94 1.548 157.544 1.644 157.172C1.728 156.788 1.854 156.47 2.022 156.218L4.056 156.956C3.828 157.28 3.714 157.658 3.714 158.09C3.714 158.942 4.182 159.368 5.118 159.368L5.532 159.368ZM10.194 145.402C10.23 145.402 10.482 145.42 10.95 145.456L10.95 152.782C11.55 152.65 12.024 152.338 12.372 151.846C12.72 151.354 12.894 150.742 12.894 150.01C12.894 149.506 12.822 149.062 12.678 148.678C12.522 148.282 12.282 147.916 11.958 147.58L13.578 146.086C14.622 146.998 15.144 148.33 15.144 150.082C15.144 151.174 14.934 152.14 14.514 152.98C14.082 153.82 13.488 154.468 12.732 154.924C11.976 155.38 11.118 155.608 10.158 155.608C9.21 155.608 8.358 155.386 7.602 154.942C6.834 154.486 6.24 153.868 5.82 153.088C5.388 152.296 5.172 151.414 5.172 150.442C5.172 149.494 5.376 148.636 5.784 147.868C6.192 147.1 6.78 146.5 7.548 146.068C8.304 145.624 9.186 145.402 10.194 145.402ZM7.296 150.424C7.296 151.06 7.476 151.594 7.836 152.026C8.196 152.458 8.688 152.722 9.312 152.818L9.312 148.048C8.7 148.144 8.214 148.408 7.854 148.84C7.482 149.272 7.296 149.8 7.296 150.424ZM15.144 138.133C15.144 139.165 14.934 140.095 14.514 140.923C14.082 141.739 13.488 142.381 12.732 142.849C11.976 143.305 11.118 143.533 10.158 143.533C9.198 143.533 8.34 143.305 7.584 142.849C6.828 142.381 6.24 141.739 5.82 140.923C5.388 140.095 5.172 139.165 5.172 138.133C5.172 137.113 5.388 136.225 5.82 135.469C6.24 134.701 6.846 134.143 7.638 133.795L8.808 135.973C7.92 136.477 7.476 137.203 7.476 138.151C7.476 138.883 7.716 139.489 8.196 139.969C8.676 140.449 9.33 140.689 10.158 140.689C10.986 140.689 11.64 140.449 12.12 139.969C12.6 139.489 12.84 138.883 12.84 138.151C12.84 137.191 12.396 136.465 11.508 135.973L12.696 133.795C13.464 134.143 14.064 134.701 14.496 135.469C14.928 136.225 15.144 137.113 15.144 138.133ZM14.532 125.072C14.736 125.348 14.892 125.69 15 126.098C15.096 126.494 15.144 126.914 15.144 127.358C15.144 128.51 14.85 129.404 14.262 130.04C13.674 130.664 12.81 130.976 11.67 130.976L7.692 130.976L7.692 132.47L5.532 132.47L5.532 130.976L3.174 130.976L3.174 128.168L5.532 128.168L5.532 125.756L7.692 125.756L7.692 128.168L11.634 128.168C12.042 128.168 12.36 128.066 12.588 127.862C12.804 127.646 12.912 127.346 12.912 126.962C12.912 126.518 12.792 126.14 12.552 125.828L14.532 125.072ZM5.172 111.234C5.172 110.334 5.382 109.518 5.802 108.786C6.21 108.042 6.792 107.46 7.548 107.04C8.292 106.62 9.162 106.41 10.158 106.41C11.154 106.41 12.03 106.62 12.786 107.04C13.53 107.46 14.112 108.042 14.532 108.786C14.94 109.518 15.144 110.334 15.144 111.234C15.144 112.47 14.754 113.442 13.974 114.15L18.492 114.15L18.492 116.958L5.316 116.958L5.316 114.276L6.432 114.276C5.592 113.58 5.172 112.566 5.172 111.234ZM12.84 111.72C12.84 111 12.6 110.412 12.12 109.956C11.628 109.488 10.974 109.254 10.158 109.254C9.342 109.254 8.694 109.488 8.214 109.956C7.722 110.412 7.476 111 7.476 111.72C7.476 112.44 7.722 113.034 8.214 113.502C8.694 113.958 9.342 114.186 10.158 114.186C10.974 114.186 11.628 113.958 12.12 113.502C12.6 113.034 12.84 112.44 12.84 111.72ZM6.594 101.128C6.126 100.792 5.772 100.342 5.532 99.7779C5.292 99.2019 5.172 98.5419 5.172 97.7979L7.764 97.7979C7.74 98.1099 7.728 98.3199 7.728 98.4279C7.728 99.2319 7.956 99.8619 8.412 100.318C8.856 100.774 9.528 101.002 10.428 101.002L15 101.002L15 103.81L5.316 103.81L5.31599 101.128L6.594 101.128ZM15.144 90.8882C15.144 91.9082 14.934 92.8262 14.514 93.6422C14.082 94.4462 13.488 95.0762 12.732 95.5322C11.976 95.9882 11.118 96.2162 10.158 96.2162C9.198 96.2162 8.34 95.9882 7.58399 95.5322C6.828 95.0762 6.23999 94.4462 5.81999 93.6422C5.388 92.8262 5.172 91.9082 5.172 90.8882C5.172 89.8682 5.38799 88.9562 5.81999 88.1522C6.23999 87.3482 6.82799 86.7182 7.58399 86.2622C8.33999 85.8062 9.19799 85.5782 10.158 85.5782C11.118 85.5782 11.976 85.8062 12.732 86.2622C13.488 86.7182 14.082 87.3482 14.514 88.1522C14.934 88.9562 15.144 89.8682 15.144 90.8882ZM12.84 90.8882C12.84 90.1682 12.6 89.5802 12.12 89.1242C11.628 88.6562 10.974 88.4222 10.158 88.4222C9.34199 88.4222 8.694 88.6562 8.214 89.1242C7.722 89.5802 7.476 90.1682 7.476 90.8882C7.476 91.6082 7.722 92.2022 8.214 92.6702C8.694 93.1382 9.342 93.3722 10.158 93.3722C10.974 93.3722 11.628 93.1382 12.12 92.6702C12.6 92.2022 12.84 91.6082 12.84 90.8882ZM5.17199 77.2573C5.17199 76.3573 5.38199 75.5413 5.80199 74.8093C6.20999 74.0653 6.79199 73.4833 7.54799 73.0633C8.29199 72.6433 9.16199 72.4333 10.158 72.4333C11.154 72.4333 12.03 72.6433 12.786 73.0633C13.53 73.4833 14.112 74.0653 14.532 74.8093C14.94 75.5413 15.144 76.3573 15.144 77.2573C15.144 78.4933 14.754 79.4653 13.974 80.1733L18.492 80.1733L18.492 82.9813L5.31599 82.9813L5.31599 80.2993L6.43199 80.2993C5.59199 79.6033 5.17199 78.5893 5.17199 77.2573ZM12.84 77.7433C12.84 77.0233 12.6 76.4353 12.12 75.9793C11.628 75.5113 10.974 75.2773 10.158 75.2773C9.34199 75.2773 8.69399 75.5113 8.21399 75.9793C7.72199 76.4353 7.47599 77.0233 7.47599 77.7433C7.47599 78.4633 7.72199 79.0573 8.21399 79.5253C8.69399 79.9813 9.34199 80.2093 10.158 80.2093C10.974 80.2093 11.628 79.9813 12.12 79.5253C12.6 79.0573 12.84 78.4633 12.84 77.7433ZM15.144 65.2255C15.144 66.2455 14.934 67.1635 14.514 67.9795C14.082 68.7835 13.488 69.4135 12.732 69.8695C11.976 70.3255 11.118 70.5535 10.158 70.5535C9.19799 70.5535 8.33999 70.3255 7.58399 69.8695C6.82799 69.4135 6.23999 68.7835 5.81999 67.9795C5.38799 67.1635 5.17199 66.2455 5.17199 65.2255C5.17199 64.2055 5.38799 63.2935 5.81999 62.4895C6.23999 61.6855 6.82799 61.0555 7.58399 60.5995C8.33999 60.1435 9.19799 59.9155 10.158 59.9155C11.118 59.9155 11.976 60.1435 12.732 60.5995C13.488 61.0555 14.082 61.6855 14.514 62.4895C14.934 63.2935 15.144 64.2055 15.144 65.2255ZM12.84 65.2255C12.84 64.5055 12.6 63.9175 12.12 63.4615C11.628 62.9935 10.974 62.7595 10.158 62.7595C9.34199 62.7595 8.69399 62.9935 8.21399 63.4615C7.72199 63.9175 7.47599 64.5055 7.47599 65.2255C7.47599 65.9455 7.72199 66.5395 8.21399 67.0075C8.69399 67.4755 9.34199 67.7095 10.158 67.7095C10.974 67.7095 11.628 67.4755 12.12 67.0075C12.6 66.5395 12.84 65.9455 12.84 65.2255ZM6.59399 54.6366C6.12599 54.3006 5.77199 53.8506 5.53199 53.2866C5.29199 52.7106 5.17199 52.0506 5.17199 51.3066L7.76399 51.3066C7.73999 51.6186 7.72799 51.8286 7.72799 51.9366C7.72799 52.7406 7.95599 53.3706 8.41199 53.8266C8.85599 54.2826 9.52799 54.5106 10.428 54.5106L15 54.5106L15 57.3186L5.31599 57.3186L5.31599 54.6366L6.59399 54.6366ZM14.532 42.337C14.736 42.613 14.892 42.955 15 43.363C15.096 43.759 15.144 44.179 15.144 44.623C15.144 45.775 14.85 46.669 14.262 47.305C13.674 47.929 12.81 48.241 11.67 48.241L7.69199 48.241L7.69199 49.735L5.53199 49.735L5.53199 48.241L3.17399 48.241L3.17399 45.433L5.53199 45.433L5.53199 43.021L7.69199 43.021L7.69199 45.433L11.634 45.433C12.042 45.433 12.36 45.331 12.588 45.127C12.804 44.911 12.912 44.611 12.912 44.227C12.912 43.783 12.792 43.405 12.552 43.093L14.532 42.337ZM5.31599 40.0407L5.31599 37.2327L15 37.2327L15 40.0407L5.31599 40.0407ZM3.96599 38.6367C3.96599 39.1527 3.81599 39.5727 3.51599 39.8967C3.21599 40.2207 2.84399 40.3827 2.39999 40.3827C1.95599 40.3827 1.58399 40.2207 1.28399 39.8967C0.983992 39.5727 0.833992 39.1527 0.833992 38.6367C0.833992 38.1207 0.977992 37.7007 1.26599 37.3767C1.55399 37.0527 1.91399 36.8907 2.34599 36.8907C2.81399 36.8907 3.20399 37.0527 3.51599 37.3767C3.81599 37.7007 3.96599 38.1207 3.96599 38.6367ZM15.144 29.2987C15.144 30.3187 14.934 31.2367 14.514 32.0527C14.082 32.8567 13.488 33.4867 12.732 33.9427C11.976 34.3987 11.118 34.6267 10.158 34.6267C9.19799 34.6267 8.33999 34.3987 7.58399 33.9427C6.82799 33.4867 6.23999 32.8567 5.81999 32.0527C5.38799 31.2367 5.17199 30.3187 5.17199 29.2987C5.17199 28.2787 5.38799 27.3667 5.81999 26.5627C6.23999 25.7587 6.82799 25.1287 7.58399 24.6727C8.33999 24.2167 9.19799 23.9887 10.158 23.9887C11.118 23.9887 11.976 24.2167 12.732 24.6727C13.488 25.1287 14.082 25.7587 14.514 26.5627C14.934 27.3667 15.144 28.2787 15.144 29.2987ZM12.84 29.2987C12.84 28.5787 12.6 27.9907 12.12 27.5347C11.628 27.0667 10.974 26.8327 10.158 26.8327C9.34199 26.8327 8.69399 27.0667 8.21399 27.5347C7.72199 27.9907 7.47599 28.5787 7.47599 29.2987C7.47599 30.0187 7.72199 30.6127 8.21399 31.0807C8.69399 31.5487 9.34199 31.7827 10.158 31.7827C10.974 31.7827 11.628 31.5487 12.12 31.0807C12.6 30.6127 12.84 30.0187 12.84 29.2987ZM5.17199 15.5057C5.17199 14.3057 5.53199 13.3397 6.25199 12.6077C6.97199 11.8637 8.03999 11.4917 9.45599 11.4917L15 11.4917L15 14.2997L9.88799 14.2997C9.11999 14.2997 8.54999 14.4677 8.17799 14.8037C7.79399 15.1397 7.60199 15.6257 7.60199 16.2617C7.60199 16.9697 7.82399 17.5337 8.26799 17.9537C8.69999 18.3737 9.34799 18.5837 10.212 18.5837L15 18.5837L15 21.3917L5.31599 21.3917L5.31599 18.7097L6.44999 18.7097C6.04199 18.3377 5.72999 17.8757 5.51399 17.3237C5.28599 16.7717 5.17199 16.1657 5.17199 15.5057ZM15.144 4.96841C15.144 5.77241 15.048 6.55841 14.856 7.32641C14.652 8.09441 14.4 8.70641 14.1 9.16241L12.084 8.22641C12.36 7.79441 12.588 7.27241 12.768 6.66041C12.936 6.04841 13.02 5.44841 13.02 4.86041C13.02 3.67241 12.726 3.07841 12.138 3.07841C11.862 3.07841 11.664 3.24041 11.544 3.56441C11.424 3.88841 11.322 4.38641 11.238 5.05841C11.118 5.85041 10.98 6.50441 10.824 7.02041C10.668 7.53641 10.392 7.98641 9.99599 8.37041C9.59999 8.74241 9.03599 8.92841 8.30399 8.92841C7.69199 8.92841 7.15199 8.75441 6.68399 8.40641C6.20399 8.04641 5.83199 7.53041 5.56799 6.85841C5.30399 6.17441 5.17199 5.37041 5.17199 4.44641C5.17199 3.76241 5.24999 3.08441 5.40599 2.41241C5.54999 1.72841 5.75399 1.16441 6.01799 0.720414L8.01599 1.65641C7.53599 2.50841 7.29599 3.43841 7.29599 4.44641C7.29599 5.04641 7.37999 5.49641 7.54799 5.79641C7.71599 6.09641 7.93199 6.24641 8.19599 6.24641C8.49599 6.24641 8.70599 6.08441 8.82599 5.76041C8.94599 5.43641 9.05999 4.92041 9.16799 4.21241C9.29999 3.42041 9.44399 2.77241 9.59999 2.26841C9.74399 1.76441 10.014 1.32641 10.41 0.954414C10.806 0.582414 11.358 0.396414 12.066 0.396414C12.666 0.396414 13.2 0.576414 13.668 0.936414C14.136 1.29641 14.502 1.82441 14.766 2.52041C15.018 3.20441 15.144 4.02041 15.144 4.96841Z" fill="white"/>
</svg>
